<svg id="visual" viewBox="0 0 900 300" width="900" height="300" xmlns="http://www.w3.org/2000/svg" xmlns:xlink="http://www.w3.org/1999/xlink" version="1.1"><rect x="0" y="0" width="900" height="300" fill="#fff"></rect><path d="M0 62L16.7 71.8C33.3 81.7 66.7 101.3 100 95.8C133.3 90.3 166.7 59.7 200 47C233.3 34.3 266.7 39.7 300 60.2C333.3 80.7 366.7 116.3 400 128C433.3 139.7 466.7 127.3 500 107.7C533.3 88 566.7 61 600 53C633.3 45 666.7 56 700 69.5C733.3 83 766.7 99 800 100.5C833.3 102 866.7 89 883.3 82.5L900 76L900 0L883.3 0C866.7 0 833.3 0 800 0C766.7 0 733.3 0 700 0C666.7 0 633.3 0 600 0C566.7 0 533.3 0 500 0C466.7 0 433.3 0 400 0C366.7 0 333.3 0 300 0C266.7 0 233.3 0 200 0C166.7 0 133.3 0 100 0C66.7 0 33.3 0 16.7 0L0 0Z" fill="#0D2329" stroke-linecap="round" stroke-linejoin="miter"></path></svg>